# xmcd
#
# Track frame offsets:
#	150
#	11370
#	24475
#	35840
#	50263
#	63863
#	79495
#	93490
#	107298
#	119863
#	132700
#	146933
#	159088
#	169018
#	180203
#	192000
#	204513
#	215753
#
# Disc length: 3043 seconds
#
# Revision: 0
# Processed by: cddbd v1.4PL0 Copyright (c) Steve Scherf et al.
# Submitted via: EasyCDDAExtractor 5.0.5.1
#
DISCID=fa0be112
DTITLE=Bo Diddly - Masters of the Blues: Eighteen Legendary Hits
DYEAR=1991
DGENRE=R&R
TTITLE0=Bo Diddley
TTITLE1=500% More Man
TTITLE2=Bring It To Jerome
TTITLE3=Say Man
TTITLE4=Somebody's Cryin'
TTITLE5=Cops and Robbers
TTITLE6=Before You Accuse Me
TTITLE7=Bo Diddley Is Loose
TTITLE8=I'm A Man
TTITLE9=Dearest Darling
TTITLE10=Hong Kong
TTITLE11=Can I Go Home?
TTITLE12=Hey Bo Diddley
TTITLE13=Whoa Mule
TTITLE14=Bo's Blues
TTITLE15=Pretty Thing
TTITLE16=Who Do You Love?
TTITLE17=Road Runner
EXTD=
EXTT0=
EXTT1=
EXTT2=
EXTT3=
EXTT4=
EXTT5=
EXTT6=
EXTT7=
EXTT8=
EXTT9=
EXTT10=
EXTT11=
EXTT12=
EXTT13=
EXTT14=
EXTT15=
EXTT16=
EXTT17=
PLAYORDER=
